# This file uses centimeters as units for non-parametric coordinates.

mtllib Roquefort_Cheese_LOD0_OBJ.mtl
g default
v 8.668114 0.422920 0.000003
v 8.668114 18.523922 0.000000
v 8.668114 0.422917 -18.356817
v 8.668114 18.523918 -18.356819
v 8.668108 0.422923 18.356823
v 8.668108 18.523926 18.356821
v 5.086868 0.422923 18.004101
v 5.086868 18.523924 18.004099
v 1.643254 0.422923 16.959490
v 1.643254 18.523924 16.959488
v -1.530398 0.422923 15.263136
v -1.530398 18.523926 15.263133
v -4.312127 0.422922 12.980227
v -4.312127 18.523924 12.980225
v -6.595032 0.422922 10.198496
v -6.595032 18.523922 10.198492
v -8.291384 0.422921 7.024840
v -8.291384 18.523922 7.024837
v -9.335989 0.422921 3.581225
v -9.335989 18.523922 3.581223
v -9.688707 0.422920 -0.000015
v -9.688707 18.523922 -0.000018
v -9.335982 0.422920 -3.581254
v -9.335982 18.523922 -3.581257
v -8.291368 0.422919 -7.024867
v -8.291368 18.523920 -7.024870
v -6.595013 0.422919 -10.198519
v -6.595013 18.523920 -10.198523
v -4.312102 0.422918 -12.980246
v -4.312102 18.523920 -12.980248
v -1.530369 0.422918 -15.263149
v -1.530369 18.523920 -15.263153
v 1.643287 0.422918 -16.959499
v 1.643287 18.523918 -16.959501
v 5.086903 0.422917 -18.004101
v 5.086903 18.523918 -18.004105
v 8.479215 9.622988 -18.040533
v 8.668114 9.622992 0.000001
v 8.479208 9.622994 18.040539
v 4.959673 9.622994 17.693892
v 1.575392 9.622993 16.667280
v -1.543580 9.622993 15.000153
v -4.277379 9.622993 12.756577
v -6.520951 9.622993 10.022775
v -8.188074 9.622993 6.903802
v -9.214682 9.622993 3.519520
v -9.561321 9.622992 -0.000016
v -9.214674 9.622990 -3.519551
v -8.188060 9.622990 -6.903831
v -6.520931 9.622989 -10.022802
v -4.277355 9.622989 -12.756599
v -1.543550 9.622989 -15.000170
v 1.575424 9.622989 -16.667290
v 4.959707 9.622988 -17.693893
vt 0.117963 0.783189
vt 0.216978 0.786026
vt 0.211126 0.990234
vt 0.112212 0.983878
vt 0.123724 0.582498
vt 0.222820 0.581818
vt 0.015618 0.780256
vt 0.009766 0.984464
vt 0.021458 0.581760
vt 0.119771 0.156651
vt 0.218814 0.154161
vt 0.218822 0.185120
vt 0.119764 0.187075
vt 0.218822 0.220440
vt 0.119764 0.221786
vt 0.017411 0.157086
vt 0.017377 0.185120
vt 0.218822 0.258763
vt 0.119764 0.259449
vt 0.017377 0.220440
vt 0.218822 0.298618
vt 0.119764 0.298618
vt 0.017377 0.258763
vt 0.218822 0.338473
vt 0.119764 0.337786
vt 0.017377 0.298618
vt 0.218822 0.376798
vt 0.119764 0.375451
vt 0.017377 0.338473
vt 0.218822 0.412118
vt 0.119764 0.410162
vt 0.017377 0.376798
vt 0.218788 0.440246
vt 0.119756 0.440585
vt 0.017377 0.412118
vt 0.017384 0.443073
vt 0.115657 0.014743
vt 0.214612 0.009766
vt 0.215769 0.049605
vt 0.116794 0.053895
vt 0.216882 0.087912
vt 0.117888 0.091543
vt 0.013252 0.015615
vt 0.014409 0.055454
vt 0.217908 0.123216
vt 0.118896 0.126240
vt 0.015522 0.093762
vt 0.016547 0.129066
vt 0.219624 0.468364
vt 0.120603 0.470999
vt 0.220615 0.503670
vt 0.121577 0.505695
vt 0.018260 0.474019
vt 0.221691 0.541979
vt 0.122635 0.543344
vt 0.019252 0.509325
vt 0.020328 0.547634
vt 0.432265 0.214063
vt 0.432265 0.418360
vt 0.392410 0.414434
vt 0.354086 0.402803
vt 0.318767 0.383924
vt 0.287809 0.358518
vt 0.262402 0.327560
vt 0.243524 0.292238
vt 0.231899 0.253915
vt 0.227973 0.214063
vt 0.231899 0.174211
vt 0.243524 0.135888
vt 0.262403 0.100565
vt 0.287809 0.069607
vt 0.318767 0.044202
vt 0.354087 0.025323
vt 0.392411 0.013691
vt 0.432265 0.009766
vt 0.645398 0.214058
vt 0.605542 0.013691
vt 0.645398 0.009766
vt 0.567218 0.025317
vt 0.531900 0.044195
vt 0.500942 0.069601
vt 0.475535 0.100559
vt 0.456657 0.135879
vt 0.445032 0.174202
vt 0.441106 0.214058
vt 0.445032 0.253912
vt 0.456657 0.292238
vt 0.475536 0.327557
vt 0.500942 0.358513
vt 0.531900 0.383921
vt 0.567220 0.402800
vt 0.605544 0.414424
vt 0.645398 0.418350
vn 0.999929 -0.010703 0.005190
vn 0.999929 -0.010703 0.005190
vn 0.999929 -0.010703 0.005190
vn 0.999929 -0.010703 0.005190
vn 0.999929 -0.010703 -0.005190
vn 0.999929 -0.010703 -0.005190
vn 0.999929 -0.010703 -0.005190
vn 0.999929 -0.010703 -0.005190
vn 0.000000 -1.000000 0.000000
vn 0.000000 -1.000000 0.000000
vn 0.000000 -1.000000 0.000000
vn 0.000000 1.000000 -0.000000
vn 0.000000 1.000000 -0.000000
vn 0.000000 1.000000 -0.000000
vn -0.097964 -0.033264 0.994634
vn -0.097964 -0.033264 0.994634
vn -0.097964 -0.033264 0.994634
vn -0.097964 -0.033264 0.994634
vn 0.000000 -1.000000 0.000000
vn 0.000000 -1.000000 0.000000
vn 0.000000 -1.000000 0.000000
vn 0.000000 1.000000 -0.000000
vn 0.000000 1.000000 -0.000000
vn 0.000000 1.000000 -0.000000
vn -0.290161 -0.029190 0.956533
vn -0.290161 -0.029190 0.956532
vn -0.290161 -0.029190 0.956533
vn -0.290161 -0.029190 0.956533
vn 0.000000 -1.000000 0.000000
vn 0.000000 -1.000000 0.000000
vn 0.000000 -1.000000 0.000000
vn 0.000000 1.000000 -0.000000
vn 0.000000 1.000000 -0.000000
vn 0.000000 1.000000 -0.000000
vn -0.471246 -0.025350 0.881638
vn -0.471246 -0.025350 0.881638
vn -0.471245 -0.025350 0.881638
vn -0.471246 -0.025350 0.881638
vn 0.000000 -1.000000 0.000000
vn 0.000000 -1.000000 0.000000
vn 0.000000 -1.000000 0.000000
vn 0.000000 1.000000 -0.000000
vn 0.000000 1.000000 -0.000000
vn 0.000000 1.000000 -0.000000
vn -0.634242 -0.021894 0.772825
vn -0.634242 -0.021894 0.772825
vn -0.634242 -0.021894 0.772825
vn -0.634242 -0.021894 0.772825
vn 0.000000 -1.000000 0.000000
vn 0.000000 -1.000000 0.000000
vn 0.000000 -1.000000 0.000000
vn 0.000000 1.000000 -0.000000
vn 0.000000 1.000000 -0.000000
vn 0.000000 1.000000 -0.000000
vn -0.772872 -0.018954 0.634279
vn -0.772872 -0.018954 0.634279
vn -0.772872 -0.018954 0.634279
vn -0.772872 -0.018954 0.634279
vn 0.000000 -1.000000 0.000000
vn 0.000000 -1.000000 0.000000
vn 0.000000 -1.000000 0.000000
vn 0.000000 1.000000 -0.000000
vn 0.000000 1.000000 -0.000000
vn 0.000000 1.000000 -0.000000
vn -0.881799 -0.016644 0.471331
vn -0.881799 -0.016644 0.471331
vn -0.881799 -0.016644 0.471331
vn -0.881799 -0.016644 0.471331
vn 0.000000 -1.000000 0.000000
vn 0.000000 -1.000000 0.000000
vn 0.000000 -1.000000 0.000000
vn 0.000000 1.000000 -0.000000
vn 0.000000 1.000000 -0.000000
vn 0.000000 1.000000 -0.000000
vn -0.956832 -0.015052 0.290251
vn -0.956832 -0.015052 0.290251
vn -0.956832 -0.015052 0.290251
vn -0.956832 -0.015052 0.290251
vn 0.000000 -1.000000 0.000000
vn 0.000000 -1.000000 0.000000
vn 0.000000 -1.000000 0.000000
vn 0.000000 1.000000 -0.000000
vn 0.000000 1.000000 -0.000000
vn 0.000000 1.000000 -0.000000
vn -0.995084 -0.014241 0.098006
vn -0.995084 -0.014241 0.098006
vn -0.995084 -0.014241 0.098006
vn -0.995084 -0.014241 0.098006
vn 0.000000 -1.000000 0.000000
vn 0.000000 -1.000000 0.000000
vn 0.000000 -1.000000 0.000000
vn 0.000000 1.000000 -0.000000
vn 0.000000 1.000000 -0.000000
vn 0.000000 1.000000 -0.000000
vn -0.995084 -0.014241 -0.098008
vn -0.995084 -0.014241 -0.098008
vn -0.995084 -0.014241 -0.098008
vn -0.995084 -0.014241 -0.098008
vn 0.000000 -1.000000 0.000000
vn 0.000000 -1.000000 0.000000
vn 0.000000 -1.000000 0.000000
vn 0.000000 1.000000 -0.000000
vn 0.000000 1.000000 -0.000000
vn 0.000000 1.000000 -0.000000
vn -0.956832 -0.015053 -0.290253
vn -0.956832 -0.015053 -0.290253
vn -0.956832 -0.015053 -0.290253
vn -0.956832 -0.015053 -0.290253
vn 0.000000 -1.000000 0.000000
vn 0.000000 -1.000000 0.000000
vn 0.000000 -1.000000 0.000000
vn 0.000000 1.000000 -0.000000
vn 0.000000 1.000000 -0.000000
vn 0.000000 1.000000 -0.000000
vn -0.881799 -0.016644 -0.471333
vn -0.881799 -0.016644 -0.471333
vn -0.881799 -0.016644 -0.471332
vn -0.881799 -0.016644 -0.471332
vn 0.000000 -1.000000 0.000000
vn 0.000000 -1.000000 0.000000
vn 0.000000 -1.000000 0.000000
vn 0.000000 1.000000 -0.000000
vn 0.000000 1.000000 -0.000000
vn 0.000000 1.000000 -0.000000
vn -0.772871 -0.018954 -0.634280
vn -0.772871 -0.018954 -0.634280
vn -0.772871 -0.018954 -0.634280
vn -0.772871 -0.018954 -0.634280
vn 0.000000 -1.000000 0.000000
vn 0.000000 -1.000000 0.000000
vn 0.000000 -1.000000 0.000000
vn 0.000000 1.000000 -0.000000
vn 0.000000 1.000000 -0.000000
vn 0.000000 1.000000 -0.000000
vn -0.634240 -0.021894 -0.772826
vn -0.634240 -0.021894 -0.772826
vn -0.634240 -0.021894 -0.772826
vn -0.634240 -0.021894 -0.772826
vn 0.000000 -1.000000 0.000000
vn 0.000000 -1.000000 0.000000
vn 0.000000 -1.000000 0.000000
vn -0.000000 1.000000 -0.000000
vn -0.000000 1.000000 -0.000000
vn -0.000000 1.000000 -0.000000
vn -0.471244 -0.025351 -0.881638
vn -0.471244 -0.025351 -0.881638
vn -0.471244 -0.025351 -0.881638
vn -0.471244 -0.025351 -0.881638
vn 0.000000 -1.000000 0.000000
vn 0.000000 -1.000000 0.000000
vn 0.000000 -1.000000 0.000000
vn 0.000000 1.000000 -0.000000
vn 0.000000 1.000000 -0.000000
vn 0.000000 1.000000 -0.000000
vn -0.290159 -0.029190 -0.956533
vn -0.290159 -0.029190 -0.956533
vn -0.290159 -0.029190 -0.956533
vn -0.290159 -0.029190 -0.956533
vn 0.000000 -1.000000 0.000000
vn 0.000000 -1.000000 0.000000
vn 0.000000 -1.000000 0.000000
vn 0.000000 1.000000 -0.000000
vn 0.000000 1.000000 -0.000000
vn 0.000000 1.000000 -0.000000
vn -0.097962 -0.033264 -0.994634
vn -0.097962 -0.033264 -0.994634
vn -0.097962 -0.033264 -0.994634
vn -0.097962 -0.033264 -0.994634
vn -0.097966 0.032184 -0.994669
vn -0.097966 0.032184 -0.994669
vn -0.097966 0.032184 -0.994669
vn -0.097966 0.032184 -0.994669
vn -0.290167 0.028241 -0.956559
vn -0.290167 0.028241 -0.956559
vn -0.290167 0.028241 -0.956559
vn -0.290167 0.028241 -0.956559
vn -0.471254 0.024527 -0.881657
vn -0.471254 0.024527 -0.881657
vn -0.471254 0.024527 -0.881657
vn -0.471254 0.024527 -0.881657
vn -0.634250 0.021183 -0.772838
vn -0.634250 0.021183 -0.772838
vn -0.634250 0.021183 -0.772838
vn -0.634250 0.021183 -0.772838
vn -0.772880 0.018338 -0.634288
vn -0.772880 0.018338 -0.634288
vn -0.772880 0.018338 -0.634288
vn -0.772880 0.018338 -0.634288
vn -0.881806 0.016103 -0.471337
vn -0.881806 0.016103 -0.471337
vn -0.881806 0.016103 -0.471337
vn -0.881806 0.016103 -0.471337
vn -0.956839 0.014563 -0.290255
vn -0.956839 0.014563 -0.290255
vn -0.956839 0.014563 -0.290255
vn -0.956839 0.014563 -0.290255
vn -0.995090 0.013778 -0.098009
vn -0.995090 0.013778 -0.098009
vn -0.995090 0.013778 -0.098009
vn -0.995090 0.013778 -0.098009
vn -0.995090 0.013778 0.098007
vn -0.995090 0.013778 0.098007
vn -0.995090 0.013778 0.098007
vn -0.995090 0.013778 0.098007
vn -0.956839 0.014563 0.290253
vn -0.956839 0.014563 0.290253
vn -0.956839 0.014563 0.290253
vn -0.956839 0.014563 0.290253
vn -0.881807 0.016103 0.471335
vn -0.881807 0.016103 0.471335
vn -0.881807 0.016103 0.471335
vn -0.881807 0.016103 0.471335
vn -0.772881 0.018338 0.634286
vn -0.772881 0.018338 0.634286
vn -0.772881 0.018338 0.634286
vn -0.772881 0.018338 0.634286
vn -0.634252 0.021183 0.772837
vn -0.634252 0.021183 0.772837
vn -0.634251 0.021183 0.772837
vn -0.634252 0.021183 0.772837
vn -0.471255 0.024527 0.881656
vn -0.471255 0.024527 0.881656
vn -0.471255 0.024527 0.881656
vn -0.471255 0.024527 0.881656
vn -0.290169 0.028242 0.956559
vn -0.290169 0.028242 0.956559
vn -0.290169 0.028242 0.956559
vn -0.290169 0.028242 0.956559
vn -0.097967 0.032184 0.994669
vn -0.097967 0.032184 0.994669
vn -0.097967 0.032184 0.994669
vn -0.097967 0.032184 0.994669
vn 0.999933 0.010355 -0.005190
vn 0.999933 0.010355 -0.005190
vn 0.999933 0.010355 -0.005190
vn 0.999933 0.010355 -0.005190
vn 0.999933 0.010355 0.005190
vn 0.999933 0.010355 0.005190
vn 0.999933 0.010355 0.005190
vn 0.999933 0.010355 0.005190
s off
g Roquefort_LOD0
usemtl CylinderSG3
f 38/1/1 2/2/2 6/3/3 39/4/4
f 37/5/5 4/6/6 2/2/7 38/1/8
f 1/58/9 5/59/10 7/60/11
f 2/76/12 8/77/13 6/78/14
f 39/37/15 6/38/16 8/39/17 40/40/18
f 1/58/19 7/60/20 9/61/21
f 2/76/22 10/79/23 8/77/24
f 40/40/25 8/39/26 10/41/27 41/42/28
f 1/58/29 9/61/30 11/62/31
f 2/76/32 12/80/33 10/79/34
f 41/42/35 10/41/36 12/45/37 42/46/38
f 1/58/39 11/62/40 13/63/41
f 2/76/42 14/81/43 12/80/44
f 42/46/45 12/45/46 14/11/47 43/10/48
f 1/58/49 13/63/50 15/64/51
f 2/76/52 16/82/53 14/81/54
f 43/10/55 14/11/56 16/12/57 44/13/58
f 1/58/59 15/64/60 17/65/61
f 2/76/62 18/83/63 16/82/64
f 44/13/65 16/12/66 18/14/67 45/15/68
f 1/58/69 17/65/70 19/66/71
f 2/76/72 20/84/73 18/83/74
f 45/15/75 18/14/76 20/18/77 46/19/78
f 1/58/79 19/66/80 21/67/81
f 2/76/82 22/85/83 20/84/84
f 46/19/85 20/18/86 22/21/87 47/22/88
f 1/58/89 21/67/90 23/68/91
f 2/76/92 24/86/93 22/85/94
f 47/22/95 22/21/96 24/24/97 48/25/98
f 1/58/99 23/68/100 25/69/101
f 2/76/102 26/87/103 24/86/104
f 48/25/105 24/24/106 26/27/107 49/28/108
f 1/58/109 25/69/110 27/70/111
f 2/76/112 28/88/113 26/87/114
f 49/28/115 26/27/116 28/30/117 50/31/118
f 1/58/119 27/70/120 29/71/121
f 2/76/122 30/89/123 28/88/124
f 50/31/125 28/30/126 30/33/127 51/34/128
f 1/58/129 29/71/130 31/72/131
f 2/76/132 32/90/133 30/89/134
f 51/34/135 30/33/136 32/49/137 52/50/138
f 1/58/139 31/72/140 33/73/141
f 2/76/142 34/91/143 32/90/144
f 52/50/145 32/49/146 34/51/147 53/52/148
f 1/58/149 33/73/150 35/74/151
f 2/76/152 36/92/153 34/91/154
f 53/52/155 34/51/156 36/54/157 54/55/158
f 1/58/159 35/74/160 3/75/161
f 2/76/162 4/93/163 36/92/164
f 54/55/165 36/54/166 4/6/167 37/5/168
f 35/57/169 54/55/170 37/5/171 3/9/172
f 33/56/173 53/52/174 54/55/175 35/57/176
f 31/53/177 52/50/178 53/52/179 33/56/180
f 29/36/181 51/34/182 52/50/183 31/53/184
f 27/35/185 50/31/186 51/34/187 29/36/188
f 25/32/189 49/28/190 50/31/191 27/35/192
f 23/29/193 48/25/194 49/28/195 25/32/196
f 21/26/197 47/22/198 48/25/199 23/29/200
f 19/23/201 46/19/202 47/22/203 21/26/204
f 17/20/205 45/15/206 46/19/207 19/23/208
f 15/17/209 44/13/210 45/15/211 17/20/212
f 13/16/213 43/10/214 44/13/215 15/17/216
f 11/48/217 42/46/218 43/10/219 13/16/220
f 9/47/221 41/42/222 42/46/223 11/48/224
f 7/44/225 40/40/226 41/42/227 9/47/228
f 5/43/229 39/37/230 40/40/231 7/44/232
f 3/9/233 37/5/234 38/1/235 1/7/236
f 1/7/237 38/1/238 39/4/239 5/8/240
